<svg xmlns="http://www.w3.org/2000/svg" 
xmlns:xlink="http://www.w3.org/1999/xlink" 
width="48" 
zoomAndPan="magnify" 
viewBox="0 0 36 36.000001" 
height="48" 
preserveAspectRatio="xMidYMid meet" 
version="1.0"><defs><clipPath id="9b0b672478">
<path d="M 0.488281 0 L 35.511719 0 L 35.511719 35.027344 L 0.488281 35.027344 Z M 0.488281 0 " 
clip-rule="nonzero"/></clipPath></defs><g clip-path="url(#9b0b672478)"><path 
fill="#ffffff" d="M 0.488281 0 L 35.511719 0 L 35.511719 42.324219 L 0.488281 42.324219 Z M 0.488281 0 " 
fill-opacity="1" fill-rule="nonzero"/>
<path fill="#ffffff" d="M 0.488281 0 L 35.511719 0 L 35.511719 35.027344 L 0.488281 35.027344 Z M 0.488281 0 " fill-opacity="1" fill-rule="nonzero"/><path fill="#ffffff" d="M 0.488281 0 L 35.511719 0 L 35.511719 35.027344 L 0.488281 35.027344 Z M 0.488281 0 " fill-opacity="1" fill-rule="nonzero"/><path fill="#ff5757" d="M 34.140625 10.695312 C 33.257812 8.609375 31.992188 6.738281 30.386719 5.128906 C 28.777344 3.519531 26.902344 2.257812 24.820312 1.378906 C 22.660156 0.464844 20.363281 0 18 0 C 15.636719 0 13.34375 0.464844 11.183594 1.375 C 9.097656 2.257812 7.222656 3.519531 5.617188 5.128906 C 4.007812 6.738281 2.746094 8.609375 1.863281 10.695312 C 0.949219 12.855469 0.488281 15.152344 0.488281 17.515625 C 0.488281 19.878906 0.949219 22.171875 1.863281 24.332031 C 2.746094 26.417969 4.007812 28.289062 5.617188 29.898438 C 7.222656 31.507812 9.097656 32.769531 11.183594 33.652344 C 13.34375 34.566406 15.636719 35.027344 18 35.027344 C 20.363281 35.027344 22.660156 34.566406 24.820312 33.652344 C 26.902344 32.769531 28.777344 31.507812 30.386719 29.898438 C 31.996094 28.289062 33.257812 26.417969 34.140625 24.332031 C 35.050781 22.171875 35.515625 19.878906 35.515625 17.515625 C 35.515625 15.152344 35.050781 12.855469 34.140625 10.695312 Z M 34.542969 17.515625 C 34.542969 26.636719 27.121094 34.054688 18 34.054688 C 8.878906 34.054688 1.460938 26.636719 1.460938 17.515625 C 1.460938 8.394531 8.878906 0.972656 18 0.972656 C 27.121094 0.972656 34.542969 8.394531 34.542969 17.515625 Z M 34.542969 17.515625 " fill-opacity="1" fill-rule="nonzero"/></g><path fill="#ff5757" d="M 18.019531 14.078125 L 27.015625 7.722656 L 27.015625 27.324219 L 9.023438 27.324219 L 9.023438 7.722656 Z M 17.378906 15.078125 L 10.132812 9.96875 L 10.132812 12.46875 L 15.769531 16.328125 L 15.769531 26.210938 L 17.378906 26.210938 Z M 10.132812 13.828125 L 10.132812 16.71875 L 13.132812 18.964844 L 13.132812 26.210938 L 14.632812 26.210938 L 14.632812 16.964844 Z M 10.132812 18.214844 L 10.132812 26.210938 L 12.023438 26.210938 L 12.023438 19.578125 Z M 25.875 12.46875 L 25.875 9.96875 L 18.519531 15.078125 L 18.519531 26.210938 L 20.269531 26.210938 L 20.269531 16.328125 Z M 22.878906 26.210938 L 22.878906 18.964844 L 25.875 16.71875 L 25.875 13.828125 L 21.378906 16.96875 L 21.378906 26.210938 Z M 24.015625 26.210938 L 25.875 26.210938 L 25.875 18.214844 L 24.015625 19.578125 Z M 24.015625 26.210938 " 
fill-opacity="1" 
fill-rule="nonzero"/></svg>